# xmcd
#
# Track frame offsets:
#	150
#	27662
#	47362
#	52528
#	67607
#	89677
#	107909
#	136401
#	175233
#	200518
#	219075
#
# Disc length: 3739 seconds
#
# Revision: 0
# Processed by: cddbd v1.5.1PL2 Copyright (c) Steve Scherf et al.
# Submitted via: EasyCDDAExtractor 9.0.0.1
#
DISCID=8e0e990b
DTITLE=Saxon - Attic Ballroom Waunakee 04-11-00 Disc 1
DYEAR=2000
DGENRE=Hard Rock
TTITLE0=Intro - Metalhead
TTITLE1=Motorcycle Man
TTITLE2=Dogs Of War Part 1
TTITLE3=Dogs Of War Part 2
TTITLE4=Strong Arm Of The Law
TTITLE5=Song Of Evil
TTITLE6=Power And The Glory
TTITLE7=The Eagle Has Landed
TTITLE8=Are We Travellers In Time
TTITLE9=20 000 Feet
TTITLE10=The Thin Red Line - Broken Heroes
EXTD=
EXTT0=
EXTT1=
EXTT2=
EXTT3=
EXTT4=
EXTT5=
EXTT6=
EXTT7=
EXTT8=
EXTT9=
EXTT10=
PLAYORDER=
